<svg xmlns="http://www.w3.org/2000/svg" xmlns:xlink="http://www.w3.org/1999/xlink" viewBox="0 0 299.07 242.31"><defs><style>.cls-1,.cls-10,.cls-2,.cls-3,.cls-4,.cls-5,.cls-6,.cls-7,.cls-8,.cls-9{stroke-miterlimit:10;stroke-width:3px;}.cls-1{fill:url(#Dégradé_sans_nom_111);}.cls-1,.cls-4{stroke:url(#Dégradé_sans_nom_111-2);}.cls-2{fill:url(#Dégradé_sans_nom_23);}.cls-2,.cls-3{stroke:url(#Dégradé_sans_nom_23-2);}.cls-3{fill:url(#Dégradé_sans_nom_110);}.cls-4{fill:url(#Dégradé_sans_nom_11);}.cls-5{fill:url(#Dégradé_sans_nom_42);}.cls-5,.cls-7,.cls-9{stroke:url(#Dégradé_sans_nom_23-4);}.cls-6{fill:url(#Dégradé_sans_nom_2);}.cls-10,.cls-6,.cls-8{stroke:url(#Dégradé_sans_nom_9);}.cls-7{fill:url(#Dégradé_sans_nom_101);}.cls-8{fill:url(#Dégradé_sans_nom_11-2);}.cls-9{fill:url(#Dégradé_sans_nom_91);}.cls-10{fill:url(#Dégradé_sans_nom_12);}</style><linearGradient id="Dégradé_sans_nom_111" x1="204.94" y1="87.93" x2="146.49" y2="248.5" gradientUnits="userSpaceOnUse"><stop offset="0.12" stop-color="#33286c"/><stop offset="0.15" stop-color="#463b7a"/><stop offset="0.22" stop-color="#695d95"/><stop offset="0.3" stop-color="#877aab"/><stop offset="0.38" stop-color="#9f92bd"/><stop offset="0.47" stop-color="#b2a4cc"/><stop offset="0.58" stop-color="#bfb1d6"/><stop offset="0.72" stop-color="#c7b9db"/><stop offset="1" stop-color="#c9bbdd"/></linearGradient><linearGradient id="Dégradé_sans_nom_111-2" x1="205.45" y1="86.52" x2="145.79" y2="250.44" xlink:href="#Dégradé_sans_nom_111"/><linearGradient id="Dégradé_sans_nom_23" x1="152.58" y1="-6.2" x2="94.13" y2="154.38" gradientUnits="userSpaceOnUse"><stop offset="0" stop-color="#c9bbdd"/><stop offset="0.28" stop-color="#c7b9db"/><stop offset="0.42" stop-color="#bfb1d6"/><stop offset="0.53" stop-color="#b2a4cc"/><stop offset="0.62" stop-color="#9f92bd"/><stop offset="0.7" stop-color="#877aab"/><stop offset="0.78" stop-color="#695d95"/><stop offset="0.85" stop-color="#463b7a"/><stop offset="0.88" stop-color="#33286c"/></linearGradient><linearGradient id="Dégradé_sans_nom_23-2" x1="153.28" y1="-8.13" x2="93.62" y2="155.79" xlink:href="#Dégradé_sans_nom_23"/><linearGradient id="Dégradé_sans_nom_110" x1="166" y1="108.96" x2="95.07" y2="38.04" gradientUnits="userSpaceOnUse"><stop offset="0.36" stop-color="#fff" stop-opacity="0"/><stop offset="0.51" stop-color="#fff" stop-opacity="0.01"/><stop offset="0.6" stop-color="#fff" stop-opacity="0.04"/><stop offset="0.68" stop-color="#fefefe" stop-opacity="0.1"/><stop offset="0.75" stop-color="#fdfdfd" stop-opacity="0.19"/><stop offset="0.81" stop-color="#fcfcfc" stop-opacity="0.29"/><stop offset="0.87" stop-color="#fafafa" stop-opacity="0.43"/><stop offset="0.93" stop-color="#f9f9f9" stop-opacity="0.59"/><stop offset="0.98" stop-color="#f7f7f7" stop-opacity="0.76"/><stop offset="1" stop-color="#f6f6f6" stop-opacity="0.85"/></linearGradient><linearGradient id="Dégradé_sans_nom_11" x1="204" y1="204.27" x2="133.07" y2="133.35" gradientUnits="userSpaceOnUse"><stop offset="0" stop-color="#f6f6f6" stop-opacity="0.85"/><stop offset="0.01" stop-color="#f6f6f6" stop-opacity="0.83"/><stop offset="0.07" stop-color="#f8f8f8" stop-opacity="0.63"/><stop offset="0.13" stop-color="#fafafa" stop-opacity="0.46"/><stop offset="0.2" stop-color="#fcfcfc" stop-opacity="0.32"/><stop offset="0.27" stop-color="#fdfdfd" stop-opacity="0.2"/><stop offset="0.34" stop-color="#fefefe" stop-opacity="0.11"/><stop offset="0.42" stop-color="#fefefe" stop-opacity="0.05"/><stop offset="0.51" stop-color="#fff" stop-opacity="0.01"/><stop offset="0.64" stop-color="#fff" stop-opacity="0"/></linearGradient><linearGradient id="Dégradé_sans_nom_42" x1="101.74" y1="193.56" x2="24.21" y2="59.28" gradientUnits="userSpaceOnUse"><stop offset="0.19" stop-color="#c9bbdd"/><stop offset="0.3" stop-color="#c5b7da"/><stop offset="0.42" stop-color="#b8aad0"/><stop offset="0.53" stop-color="#a395c0"/><stop offset="0.66" stop-color="#8578aa"/><stop offset="0.78" stop-color="#5f538d"/><stop offset="0.9" stop-color="#33286c"/></linearGradient><linearGradient id="Dégradé_sans_nom_23-4" x1="103.41" y1="194.32" x2="23.59" y2="56.06" xlink:href="#Dégradé_sans_nom_23"/><linearGradient id="Dégradé_sans_nom_2" x1="275.15" y1="183.53" x2="197.29" y2="48.68" xlink:href="#Dégradé_sans_nom_111"/><linearGradient id="Dégradé_sans_nom_9" x1="275.48" y1="186.24" x2="195.62" y2="47.91" gradientUnits="userSpaceOnUse"><stop offset="0.12" stop-color="#33286c"/><stop offset="0.15" stop-color="#403576"/><stop offset="0.22" stop-color="#645891"/><stop offset="0.3" stop-color="#8477a9"/><stop offset="0.39" stop-color="#9d90bc"/><stop offset="0.49" stop-color="#b1a3cb"/><stop offset="0.61" stop-color="#bfb1d5"/><stop offset="0.75" stop-color="#c7b9db"/><stop offset="1" stop-color="#c9bbdd"/></linearGradient><linearGradient id="Dégradé_sans_nom_101" x1="28.41" y1="155.72" x2="79.55" y2="104.58" gradientUnits="userSpaceOnUse"><stop offset="0.36" stop-color="#fff" stop-opacity="0"/><stop offset="0.49" stop-color="#fff" stop-opacity="0.01"/><stop offset="0.58" stop-color="#fefefe" stop-opacity="0.05"/><stop offset="0.66" stop-color="#fefefe" stop-opacity="0.11"/><stop offset="0.73" stop-color="#fdfdfd" stop-opacity="0.2"/><stop offset="0.8" stop-color="#fcfcfc" stop-opacity="0.32"/><stop offset="0.87" stop-color="#fafafa" stop-opacity="0.46"/><stop offset="0.93" stop-color="#f8f8f8" stop-opacity="0.63"/><stop offset="0.99" stop-color="#f6f6f6" stop-opacity="0.83"/><stop offset="1" stop-color="#f6f6f6" stop-opacity="0.85"/></linearGradient><linearGradient id="Dégradé_sans_nom_11-2" x1="220.87" y1="136.31" x2="270.63" y2="86.55" xlink:href="#Dégradé_sans_nom_11"/><linearGradient id="Dégradé_sans_nom_91" x1="60.18" y1="199.87" x2="60.18" y2="67.59" gradientUnits="userSpaceOnUse"><stop offset="0" stop-color="#f6f6f6" stop-opacity="0.85"/><stop offset="0.02" stop-color="#f7f7f7" stop-opacity="0.76"/><stop offset="0.07" stop-color="#f9f9f9" stop-opacity="0.58"/><stop offset="0.13" stop-color="#fafafa" stop-opacity="0.43"/><stop offset="0.19" stop-color="#fcfcfc" stop-opacity="0.29"/><stop offset="0.25" stop-color="#fdfdfd" stop-opacity="0.19"/><stop offset="0.32" stop-color="#fefefe" stop-opacity="0.1"/><stop offset="0.39" stop-color="#fff" stop-opacity="0.04"/><stop offset="0.49" stop-color="#fff" stop-opacity="0.01"/><stop offset="0.64" stop-color="#fff" stop-opacity="0"/></linearGradient><linearGradient id="Dégradé_sans_nom_12" x1="238.89" y1="171.13" x2="238.89" y2="42.44" gradientUnits="userSpaceOnUse"><stop offset="0.36" stop-color="#fff" stop-opacity="0"/><stop offset="0.51" stop-color="#fff" stop-opacity="0.01"/><stop offset="0.61" stop-color="#fff" stop-opacity="0.04"/><stop offset="0.68" stop-color="#fefefe" stop-opacity="0.1"/><stop offset="0.75" stop-color="#fdfdfd" stop-opacity="0.19"/><stop offset="0.81" stop-color="#fcfcfc" stop-opacity="0.29"/><stop offset="0.87" stop-color="#fafafa" stop-opacity="0.43"/><stop offset="0.93" stop-color="#f9f9f9" stop-opacity="0.58"/><stop offset="0.98" stop-color="#f7f7f7" stop-opacity="0.76"/><stop offset="1" stop-color="#f6f6f6" stop-opacity="0.85"/></linearGradient></defs><title>Fichier 2</title><g id="Calque_2" data-name="Calque 2"><g id="Calque_7" data-name="Calque 7"><path class="cls-1" d="M211,97.36a27.86,27.86,0,0,0-11.12-10.92,21.58,21.58,0,0,0-11.33-2.92,20.19,20.19,0,0,0-7.4,1.74L125,240.69c11.49.41,23-.42,34.47,0a25,25,0,0,0,13.41-5.42,24.55,24.55,0,0,0,7.21-11.12c3.14-9.22,18.25-50.44,39.72-109.27q-4.42-8.76-8.81-17.52Z"/><path class="cls-2" d="M88.06,145a28,28,0,0,0,11.12,10.92,21.58,21.58,0,0,0,11.33,2.92,20.17,20.17,0,0,0,7.4-1.75L174.06,1.62c-11.49-.42-23,.42-34.47,0A24.92,24.92,0,0,0,126.18,7,24.5,24.5,0,0,0,119,18.16c-3.14,9.22-18.25,50.44-39.72,109.26q4.43,8.76,8.81,17.52Z"/><path class="cls-3" d="M88.06,145a28,28,0,0,0,11.12,10.92,21.58,21.58,0,0,0,11.33,2.92,20.17,20.17,0,0,0,7.4-1.75L174.06,1.62c-11.49-.42-23,.42-34.47,0A24.92,24.92,0,0,0,126.18,7,24.5,24.5,0,0,0,119,18.16c-3.14,9.22-18.25,50.44-39.72,109.26q4.43,8.76,8.81,17.52Z"/><path class="cls-4" d="M211,97.36a27.86,27.86,0,0,0-11.12-10.92,21.58,21.58,0,0,0-11.33-2.92,20.19,20.19,0,0,0-7.4,1.74L125,240.69c11.49.41,23-.42,34.47,0a25,25,0,0,0,13.41-5.42,24.55,24.55,0,0,0,7.21-11.12c3.14-9.22,18.25-50.44,39.72-109.27q-4.42-8.76-8.81-17.52Z"/></g><g id="Calque_4" data-name="Calque 4"><path class="cls-5" d="M117.91,157a20.17,20.17,0,0,1-7.4,1.75,21.58,21.58,0,0,1-11.33-2.92A28,28,0,0,1,88.06,145h0q-4.38-8.76-8.81-17.52c-6.67-13.16-13.38-26.33-19.91-39.5-9-13.38-28-16.74-28-16.74H2.43c19.19,38.4,57.7,115,57.76,115a27.18,27.18,0,0,0,23.55,13.71c12.88,0,23.36-9.31,26.93-21.09h0c2.55-7.21,4.7-14.54,7.26-21.74Z"/><path class="cls-6" d="M181.16,85.26a20.19,20.19,0,0,1,7.4-1.74,21.58,21.58,0,0,1,11.33,2.92A27.86,27.86,0,0,1,211,97.36h0q4.38,8.76,8.81,17.52c6.67,13.17,13.38,26.34,19.91,39.51,9,13.38,28,16.74,28,16.74h28.91c-19.19-38.4-57.7-115-57.76-115a27.14,27.14,0,0,0-50.07,7.5h0Q185,74.45,181.14,85.27Z"/></g><g id="_1er_reflet_blanc" data-name="1er reflet blanc"><path class="cls-7" d="M117.91,157a20.17,20.17,0,0,1-7.4,1.75,21.58,21.58,0,0,1-11.33-2.92A28,28,0,0,1,88.06,145h0q-4.38-8.76-8.81-17.52c-6.67-13.16-13.38-26.33-19.91-39.5-9-13.38-28-16.74-28-16.74H2.43c19.19,38.4,57.7,115,57.76,115a27.18,27.18,0,0,0,23.55,13.71c12.88,0,23.36-9.31,26.93-21.09h0c2.55-7.21,4.7-14.54,7.26-21.74Z"/><path class="cls-8" d="M181.16,85.26a20.19,20.19,0,0,1,7.4-1.74,21.58,21.58,0,0,1,11.33,2.92A27.86,27.86,0,0,1,211,97.36h0q4.38,8.76,8.81,17.52c6.67,13.17,13.38,26.34,19.91,39.51,9,13.38,28,16.74,28,16.74h28.91c-19.19-38.4-57.7-115-57.76-115a27.14,27.14,0,0,0-50.07,7.5h0Q185,74.45,181.14,85.27Z"/></g><g id="deuxième_reflet_blanc" data-name="deuxième reflet blanc"><path class="cls-9" d="M117.91,157a20.17,20.17,0,0,1-7.4,1.75,21.58,21.58,0,0,1-11.33-2.92A28,28,0,0,1,88.06,145h0q-4.38-8.76-8.81-17.52c-6.67-13.16-13.38-26.33-19.91-39.5-9-13.38-28-16.74-28-16.74H2.43c19.19,38.4,57.7,115,57.76,115a27.18,27.18,0,0,0,23.55,13.71c12.88,0,23.36-9.31,26.93-21.09h0c2.55-7.21,4.7-14.54,7.26-21.74Z"/><path class="cls-10" d="M181.16,85.26a20.19,20.19,0,0,1,7.4-1.74,21.58,21.58,0,0,1,11.33,2.92A27.86,27.86,0,0,1,211,97.36h0q4.38,8.76,8.81,17.52c6.67,13.17,13.38,26.34,19.91,39.51,9,13.38,28,16.74,28,16.74h28.91c-19.19-38.4-57.7-115-57.76-115a27.14,27.14,0,0,0-50.07,7.5h0Q185,74.45,181.14,85.27Z"/></g></g></svg>